# xmcd CD database file
#
# Track frame offsets:
#	150
#	19656
#	36799
#	53374
#	75190
#	96373
#	113155
#	129768
#	163067
#	191081
#	211813
#	234526
#
# Disc length: 3425 seconds
#
# Revision: 0
# Processed by: cddbd v1.5.2PL0 Copyright (c) Steve Scherf et al.
# Submitted via: CDex 1.51
#
DISCID=8a0d5f0c
DTITLE=Misc - Moon
DYEAR=1900
DGENRE=Jazz
TTITLE0=All I Want
TTITLE1=ichibansukinamono my favourite things
TTITLE2=Song for the Soul
TTITLE3=(They Long To Be) Close To You
TTITLE4=Cascade of the Seven Waterfalls
TTITLE5=Smoothie
TTITLE6=andei, andei
TTITLE7=Horizon
TTITLE8=Beautiful day
TTITLE9=anemone
TTITLE10=Agua
TTITLE11=THE GOOD LIFE
EXTD=
EXTT0=
EXTT1=
EXTT2=
EXTT3=
EXTT4=
EXTT5=
EXTT6=
EXTT7=
EXTT8=
EXTT9=
EXTT10=
EXTT11=
PLAYORDER=
